<?xml version="1.0" standalone="no"?>
<!DOCTYPE svg PUBLIC "-//W3C//DTD SVG 20010904//EN"
 "http://www.w3.org/TR/2001/REC-SVG-20010904/DTD/svg10.dtd">
<svg version="1.0" xmlns="http://www.w3.org/2000/svg"
 width="564.000000pt" height="564.000000pt" viewBox="0 0 564.000000 564.000000"
 preserveAspectRatio="xMidYMid meet">
<metadata>
Created by potrace 1.11, written by Peter Selinger 2001-2013
</metadata>
<g transform="translate(0.000000,564.000000) scale(0.100000,-0.100000)"
fill="#000000" stroke="none">
<path d="M2204 5305 c-4 -8 -10 -12 -15 -9 -5 3 -9 2 -9 -3 0 -4 -10 -19 -21
-33 -11 -14 -17 -18 -13 -10 4 9 -2 6 -13 -5 -11 -11 -20 -22 -19 -25 1 -3 -8
-15 -21 -27 -13 -12 -23 -20 -23 -18 0 3 -8 -3 -18 -12 -11 -10 -18 -20 -17
-23 1 -3 -9 -15 -22 -27 -13 -12 -23 -20 -23 -18 0 2 -11 -6 -23 -18 -13 -12
-23 -26 -23 -32 1 -5 -5 -9 -11 -10 -7 0 -13 -3 -13 -7 0 -12 -44 -55 -52 -51
-5 2 -8 1 -8 -4 0 -4 -10 -19 -21 -33 -11 -14 -17 -18 -13 -10 4 9 -2 6 -13
-5 -11 -11 -20 -22 -19 -25 1 -3 -8 -15 -21 -27 -13 -12 -23 -20 -23 -18 0 3
-8 -3 -18 -12 -11 -10 -18 -20 -17 -23 1 -3 -9 -15 -22 -27 -13 -12 -23 -20
-23 -18 0 2 -11 -6 -23 -18 -13 -12 -23 -26 -23 -32 1 -5 -5 -9 -11 -8 -7 2
-13 -3 -13 -11 0 -8 -5 -18 -12 -22 -7 -5 -8 -2 -3 7 4 8 -1 5 -12 -6 -11 -11
-20 -22 -19 -25 1 -3 -8 -15 -21 -27 -13 -12 -23 -20 -23 -18 0 2 -11 -6 -23
-18 -13 -12 -23 -26 -23 -32 1 -5 -5 -9 -11 -10 -7 0 -14 -4 -15 -10 -5 -15
-42 -52 -50 -48 -5 2 -8 1 -8 -4 0 -4 -10 -19 -21 -33 -11 -14 -17 -18 -13
-10 4 9 -2 6 -13 -5 -11 -11 -20 -22 -19 -25 1 -3 -8 -15 -21 -27 -13 -12 -23
-19 -23 -15 0 4 -8 -5 -18 -21 -10 -15 -22 -24 -25 -20 -4 3 -7 2 -7 -3 0 -5
-10 -20 -21 -34 -11 -14 -17 -18 -13 -10 4 9 -2 6 -13 -5 -11 -11 -20 -22 -19
-25 1 -3 -8 -15 -21 -27 -13 -12 -23 -20 -23 -18 0 3 -8 -3 -18 -12 -11 -10
-18 -20 -17 -23 1 -3 -9 -15 -22 -27 -13 -12 -23 -20 -23 -18 0 2 -11 -6 -23
-18 -13 -12 -23 -26 -23 -32 1 -5 -5 -9 -11 -7 -7 1 -13 -4 -13 -12 0 -8 -5
-18 -12 -22 -7 -5 -8 -2 -3 7 4 8 -1 5 -12 -6 -11 -11 -20 -22 -19 -25 1 -3
-8 -15 -21 -27 -13 -12 -23 -20 -23 -18 0 2 -11 -6 -23 -18 -13 -12 -23 -26
-23 -32 1 -5 -5 -9 -11 -10 -7 0 -14 -4 -15 -10 -5 -15 -42 -52 -50 -48 -5 2
-8 1 -8 -4 0 -4 -10 -19 -21 -33 -11 -14 -17 -18 -13 -10 4 9 -2 6 -13 -5 -11
-11 -20 -22 -19 -25 1 -3 -8 -15 -21 -27 -13 -12 -23 -20 -23 -18 0 3 -8 -3
-18 -12 -11 -10 -18 -20 -17 -23 1 -3 -9 -15 -22 -27 -13 -12 -23 -20 -23 -18
0 2 -11 -6 -23 -18 -13 -12 -23 -26 -23 -32 1 -5 -5 -9 -11 -10 -7 0 -14 -4
-15 -10 -5 -15 -42 -52 -50 -48 -5 2 -8 1 -8 -4 0 -4 -10 -19 -21 -33 -11 -14
-17 -18 -13 -10 4 9 -2 6 -13 -5 -11 -11 -20 -22 -19 -25 1 -3 -8 -15 -21 -27
-13 -12 -23 -19 -23 -15 0 4 -8 -5 -18 -21 -10 -15 -22 -24 -25 -20 -4 3 -7 2
-7 -3 0 -5 -10 -20 -21 -34 -11 -14 -17 -18 -13 -10 4 9 -2 6 -13 -5 -11 -11
-20 -22 -19 -25 1 -3 -8 -15 -21 -27 -13 -12 -23 -20 -23 -18 0 3 -8 -3 -18
-12 -11 -10 -18 -20 -17 -23 1 -3 -9 -15 -22 -27 -13 -12 -23 -20 -23 -18 0 2
-10 -6 -23 -18 -13 -12 -22 -25 -20 -29 2 -5 -1 -8 -6 -8 -12 0 -16 -585 -5
-614 3 -9 13 -16 21 -16 8 0 11 -4 8 -10 -3 -5 1 -10 9 -10 8 0 18 -5 22 -12
5 -7 3 -8 -7 -3 -8 5 -1 -4 14 -18 15 -15 33 -27 38 -27 6 0 7 -4 4 -10 -3 -5
1 -10 9 -10 8 0 18 -5 22 -12 5 -7 2 -9 -7 -3 -8 4 0 -4 16 -19 44 -38 85 -80
85 -88 0 -4 9 -9 19 -13 11 -3 23 -15 26 -26 4 -10 9 -18 13 -16 4 2 17 -7 29
-20 12 -13 21 -23 18 -23 -2 0 15 -18 37 -40 23 -22 45 -40 49 -40 4 0 11 -9
14 -21 4 -11 9 -18 12 -15 3 3 18 -10 33 -29 15 -19 29 -33 31 -31 2 2 15 -11
29 -30 14 -18 31 -34 38 -34 7 0 10 -5 7 -10 -3 -5 1 -10 9 -10 8 0 18 -5 22
-12 5 -7 2 -9 -7 -3 -8 4 0 -4 16 -19 47 -40 95 -90 95 -98 0 -5 7 -8 16 -8 8
0 12 -4 9 -10 -3 -5 1 -10 9 -10 8 0 18 -5 22 -12 5 -7 2 -8 -7 -3 -23 13 24
-29 53 -48 16 -10 28 -24 28 -32 0 -7 5 -17 12 -21 7 -5 8 -3 3 7 -7 11 -6 12
6 2 12 -10 37 11 141 117 69 71 123 131 120 134 -3 3 -1 6 5 6 16 0 83 62 77
71 -3 5 0 9 6 9 14 0 100 86 100 101 0 7 3 10 6 6 9 -9 156 142 149 153 -3 5
-10 10 -14 10 -10 0 -91 80 -91 89 0 4 -11 14 -25 21 -13 7 -27 20 -30 29 -3
9 -21 27 -39 41 -19 14 -32 28 -29 33 2 4 -3 7 -12 7 -9 0 -14 4 -10 9 3 5 -3
12 -13 15 -10 4 -25 18 -32 31 -7 14 -17 25 -21 25 -11 0 -89 81 -89 93 0 6
-2 8 -6 5 -7 -7 -61 45 -56 55 2 4 -4 7 -13 7 -9 0 -14 4 -10 9 3 5 -3 12 -13
15 -10 4 -25 18 -32 31 -7 14 -19 25 -26 25 -7 0 -16 5 -20 12 -5 7 -3 8 7 3
11 -7 12 -6 3 6 -8 10 -6 18 8 32 10 9 18 14 18 11 0 -4 10 6 22 22 28 38 44
54 33 34 -8 -13 -6 -13 8 -1 9 7 15 16 14 20 -2 3 8 17 21 31 14 14 21 18 17
10 -8 -13 -7 -13 8 -1 10 8 16 16 13 18 -6 6 37 50 45 46 4 -1 13 5 20 14 12
14 12 16 -1 8 -8 -4 -4 3 10 17 14 13 28 23 33 21 4 -2 7 -1 7 4 1 4 12 22 26
38 15 17 23 23 19 15 -4 -8 6 1 23 20 17 19 31 39 32 43 0 5 5 5 10 2 6 -3 10
1 10 10 0 9 3 14 8 12 4 -2 18 8 32 21 14 14 18 22 10 17 -8 -4 -1 4 15 19 17
14 34 25 38 26 5 0 6 3 4 8 -2 4 8 18 21 32 14 14 21 18 17 10 -8 -13 -6 -13
8 -1 9 7 14 17 11 22 -3 5 -2 9 3 9 4 0 19 10 33 21 14 11 18 18 10 14 -8 -4
-1 4 15 19 17 14 34 25 38 26 5 0 6 3 4 8 -2 4 8 18 21 32 14 14 21 18 17 10
-8 -13 -6 -13 8 -1 9 7 15 16 14 20 -4 8 40 51 46 45 2 -3 10 3 18 13 12 15
12 16 -1 8 -8 -4 -4 3 10 17 14 13 28 23 31 21 4 -1 13 5 20 14 12 14 12 16
-1 9 -13 -7 10 13 79 72 13 11 13 12 1 7 -8 -4 -1 4 15 19 17 14 34 25 38 26
5 0 6 3 4 8 -2 4 8 18 21 32 14 14 21 18 17 10 -8 -13 -6 -13 8 -1 9 7 15 16
14 20 -4 8 40 51 46 45 2 -3 10 3 18 13 12 15 12 16 -1 8 -8 -4 -4 3 10 17 14
13 28 23 31 21 4 -1 13 5 20 14 12 14 12 16 -1 9 -8 -5 -1 3 15 18 17 14 34
25 38 26 5 0 6 3 4 8 -2 4 8 18 21 32 14 14 21 18 17 10 -8 -13 -7 -13 8 -1
10 8 16 16 14 18 -7 6 57 69 66 65 4 -2 7 4 7 13 0 9 3 14 8 12 4 -2 18 8 32
21 14 14 18 22 10 17 -8 -4 -1 4 15 19 17 14 34 25 38 26 5 0 6 3 4 8 -2 4 8
18 21 32 14 14 21 18 17 10 -8 -13 -6 -13 8 -1 9 7 14 17 11 22 -3 5 2 9 11 9
9 0 14 3 12 8 -2 4 8 18 21 32 14 14 21 18 17 10 -8 -13 -7 -13 8 -1 10 8 16
16 14 18 -7 6 57 69 66 65 4 -2 7 4 7 13 0 9 3 14 8 12 4 -2 18 8 32 21 14 14
18 22 10 17 -8 -4 -1 4 15 19 17 14 34 25 38 26 5 0 6 3 4 8 -2 4 8 18 21 32
14 14 21 18 17 10 -8 -13 -6 -13 8 -1 9 7 15 17 12 21 -3 4 3 14 12 21 14 12
16 12 9 -1 -4 -8 0 -6 8 4 15 19 23 46 9 33 -3 -4 -11 3 -17 15 -6 13 -23 28
-36 35 -14 7 -21 13 -17 13 4 0 2 6 -5 14 -7 8 -16 12 -19 10 -3 -2 -11 8 -17
21 -7 14 -19 25 -27 25 -9 0 -14 3 -12 8 5 9 -30 42 -37 35 -3 -4 -6 1 -6 10
0 10 -7 17 -16 17 -8 0 -13 3 -11 8 2 4 -4 15 -15 25 -10 9 -18 14 -18 10 -1
-5 -8 4 -16 20 -8 15 -22 27 -30 27 -8 0 -13 3 -11 8 5 9 -30 42 -37 35 -3 -4
-6 1 -6 10 0 10 -7 17 -17 17 -9 0 -13 3 -10 7 4 3 -5 15 -20 25 -16 10 -24
18 -20 18 5 0 2 7 -7 15 -8 8 -20 15 -26 15 -6 0 -9 4 -5 9 3 5 -3 12 -12 15
-10 3 -23 16 -28 28 -6 13 -20 28 -33 34 -12 6 -26 15 -30 19 -4 5 0 5 8 1 8
-4 6 0 -4 8 -11 9 -24 16 -29 16 -4 0 -5 5 -2 10 3 6 4 10 0 10 -3 0 -8 -7
-11 -15z m87 -72 c13 -16 12 -17 -3 -4 -10 7 -18 15 -18 17 0 8 8 3 21 -13z
m480 -480 c13 -16 12 -17 -3 -4 -17 13 -22 21 -14 21 2 0 10 -8 17 -17z"/>
<path d="M3420 5307 c0 -9 -5 -19 -12 -23 -7 -5 -8 -3 -3 6 5 7 -16 -11 -46
-41 -30 -30 -54 -56 -54 -59 1 -3 -12 -17 -27 -32 -15 -15 -28 -25 -28 -23 0
2 -15 -11 -33 -28 -18 -18 -31 -35 -29 -39 2 -5 -1 -8 -6 -8 -13 0 -81 -68
-74 -74 3 -3 1 -6 -5 -6 -5 0 -34 -25 -65 -55 -30 -30 -54 -55 -52 -55 1 0 -9
-13 -24 -28 -15 -15 -29 -28 -32 -27 -3 0 -21 -16 -41 -37 -21 -21 -34 -38
-31 -38 3 0 -2 -6 -12 -13 -16 -12 -14 -16 21 -49 21 -21 43 -43 49 -50 7 -7
61 -61 120 -120 60 -59 114 -113 120 -120 6 -7 26 -27 45 -44 19 -17 53 -51
76 -75 23 -24 58 -59 77 -77 20 -18 36 -37 36 -41 0 -28 57 23 325 291 l296
297 -32 35 c-18 20 -38 36 -45 36 -7 0 -16 5 -20 12 -5 7 -3 8 7 3 12 -8 12
-6 0 8 -7 9 -18 14 -25 10 -6 -3 -8 -2 -3 2 9 10 -21 45 -39 45 -7 0 -16 5
-20 12 -5 7 -2 8 7 3 8 -5 3 4 -10 18 -14 15 -30 27 -38 27 -7 0 -12 4 -11 8
4 12 -55 72 -69 72 -7 0 -12 4 -10 8 3 12 -75 92 -89 92 -7 0 -16 5 -20 12 -5
7 -3 8 7 3 12 -8 12 -6 0 8 -7 9 -18 14 -25 10 -6 -3 -8 -2 -3 2 9 10 -21 45
-39 45 -7 0 -16 5 -20 12 -5 7 -2 8 7 3 8 -5 3 4 -10 18 -14 15 -30 27 -38 27
-7 0 -12 5 -10 11 1 6 -8 18 -20 26 -21 14 -23 14 -23 0z"/>
<path d="M4652 4083 c-6 -3 -10 -9 -6 -14 3 -5 1 -9 -4 -9 -14 0 -102 -87
-102 -101 0 -7 -3 -10 -6 -6 -7 6 -74 -60 -74 -74 0 -5 -3 -8 -7 -7 -12 3
-133 -119 -126 -126 4 -3 2 -6 -4 -6 -15 0 -103 -86 -103 -101 0 -7 -2 -10 -5
-7 -3 3 -40 -28 -81 -69 l-76 -74 59 -61 c32 -33 64 -65 71 -72 7 -6 61 -60
120 -120 59 -59 113 -113 120 -120 16 -15 74 -72 88 -88 7 -7 50 -51 98 -98
47 -47 93 -92 101 -101 13 -14 4 -26 -92 -122 -58 -59 -111 -107 -116 -107 -6
0 -8 -3 -4 -6 3 -3 -14 -24 -39 -45 -25 -21 -43 -39 -41 -39 2 0 -48 -52 -111
-115 -64 -63 -120 -115 -126 -115 -5 0 -7 -2 -4 -5 5 -5 -157 -172 -215 -221
-16 -13 -26 -24 -23 -24 3 0 -2 -8 -12 -17 -10 -10 -48 -46 -84 -80 -37 -35
-65 -63 -63 -63 1 0 -50 -52 -113 -115 -64 -63 -120 -115 -126 -115 -5 0 -7
-2 -4 -5 5 -5 -157 -172 -215 -221 -16 -13 -27 -24 -24 -24 5 0 -260 -265
-296 -296 -16 -13 -26 -24 -23 -24 2 0 -31 -35 -74 -77 l-79 -78 39 -42 c22
-24 44 -43 50 -43 5 0 10 -4 10 -8 0 -11 220 -232 231 -232 5 0 9 -3 9 -8 0
-12 58 -72 69 -72 6 0 11 -4 11 -8 0 -12 141 -152 152 -152 5 0 6 -4 3 -10 -3
-5 1 -10 10 -10 9 0 13 -5 10 -10 -3 -6 -3 -10 1 -10 4 0 502 496 1108 1103
l1102 1102 -1 302 -1 301 -44 46 c-25 25 -50 46 -57 46 -6 0 -15 5 -19 12 -5
7 -3 8 7 3 12 -8 12 -6 0 8 -7 9 -18 14 -25 10 -6 -3 -8 -2 -3 2 9 10 -21 45
-39 45 -7 0 -16 5 -20 12 -5 7 -2 8 7 3 8 -5 3 4 -10 18 -14 15 -30 27 -38 27
-7 0 -12 4 -10 8 3 13 -75 92 -92 92 -8 0 -12 3 -8 6 8 8 -34 54 -45 48 -4 -3
-8 1 -8 9 0 18 -34 49 -44 40 -4 -5 -6 -2 -4 6 1 8 -8 20 -22 28 -14 7 -21 13
-16 13 5 0 -11 20 -35 45 -24 25 -49 45 -56 45 -6 0 -15 5 -19 12 -5 7 -3 8 7
3 12 -8 12 -6 0 8 -7 9 -17 14 -22 11 -5 -3 -9 1 -9 9 0 19 -34 49 -45 40 -4
-5 -5 -3 -2 3 4 7 -1 18 -10 25 -14 12 -16 12 -8 0 5 -10 4 -12 -3 -7 -7 4
-12 13 -12 20 0 14 -80 92 -92 89 -4 -2 -8 3 -8 10 0 8 -12 24 -27 38 -14 13
-23 18 -18 10 5 -9 4 -12 -3 -7 -7 4 -12 13 -12 20 0 15 -64 76 -80 76 -6 0
-9 4 -6 9 8 12 -16 29 -32 24z"/>
<path d="M2119 1549 c-19 -18 -27 -28 -18 -23 8 5 4 0 -9 -11 -49 -40 -67 -56
-53 -49 9 5 12 3 7 -4 -4 -7 -12 -12 -17 -12 -15 0 -39 -26 -32 -34 4 -3 1 -6
-6 -6 -6 0 -24 -12 -39 -27 -15 -15 -18 -20 -7 -12 18 13 19 13 6 -3 -7 -10
-19 -18 -25 -18 -14 0 -56 -45 -56 -59 0 -6 -5 -13 -12 -17 -7 -5 -8 -3 -3 7
5 8 -4 1 -18 -14 -15 -15 -27 -32 -27 -36 0 -5 -8 -15 -17 -22 -17 -13 -17
-12 -4 6 8 11 3 8 -12 -7 -15 -15 -27 -32 -27 -38 0 -6 -4 -9 -9 -6 -5 3 -15
-2 -22 -11 -12 -14 -12 -16 0 -8 10 5 12 4 7 -3 -4 -7 -12 -12 -17 -12 -15 0
-39 -26 -32 -34 4 -3 1 -6 -6 -6 -6 0 -24 -12 -39 -27 -15 -15 -18 -20 -7 -12
18 13 19 13 6 -3 -7 -10 -20 -18 -29 -18 -8 0 -12 -3 -9 -7 4 -3 -3 -11 -15
-17 -34 -17 -32 -31 13 -72 44 -41 45 -42 85 -89 15 -16 23 -24 19 -16 -6 9
-4 12 3 7 7 -4 12 -14 12 -22 0 -8 5 -12 10 -9 6 3 10 0 10 -7 0 -7 16 -24 34
-38 19 -14 32 -27 30 -29 -2 -2 12 -16 31 -31 19 -15 32 -30 29 -33 -3 -3 4
-8 15 -12 11 -3 22 -14 25 -23 3 -9 19 -26 35 -37 17 -11 29 -21 27 -22 -5 -5
76 -83 86 -83 5 0 6 -4 3 -10 -3 -5 1 -10 9 -10 8 0 18 -5 22 -12 5 -7 2 -9
-7 -3 -8 4 0 -4 16 -19 17 -14 35 -30 40 -34 6 -5 22 -22 37 -38 41 -45 56
-55 63 -44 3 6 3 10 -2 10 -4 0 3 6 17 13 14 8 24 19 23 25 -2 7 4 12 12 12 8
0 15 6 15 14 0 8 5 18 12 22 7 5 8 3 3 -7 -8 -12 -6 -12 8 0 9 7 15 17 12 21
-3 4 3 14 12 21 14 12 16 12 8 -1 -5 -9 0 -8 13 4 24 21 29 32 10 20 -7 -4 -8
-3 -4 4 4 7 14 12 22 12 8 0 12 4 9 10 -3 5 0 10 8 10 8 0 21 8 28 17 12 14
12 16 0 8 -10 -5 -12 -4 -7 3 4 7 14 12 22 12 8 0 14 8 14 17 0 9 3 13 7 10 8
-9 43 22 43 39 0 7 5 16 12 20 7 5 8 2 3 -7 -5 -8 4 -3 18 10 30 27 37 41 10
20 -16 -13 -17 -12 -4 4 7 9 19 17 27 17 7 0 16 5 20 12 5 7 3 8 -6 3 -9 -5
-11 -4 -6 3 4 7 14 12 22 12 8 0 14 8 14 17 0 9 3 13 7 10 8 -9 43 22 43 39 0
7 5 16 12 20 7 5 8 2 3 -7 -4 -8 8 1 28 20 20 19 34 38 31 43 -3 4 2 8 10 8 9
0 16 6 16 14 0 8 5 18 12 22 7 5 8 3 3 -7 -8 -12 -6 -12 8 0 13 10 14 18 6 33
-6 10 -17 22 -25 25 -7 3 -11 9 -8 14 3 5 -2 9 -10 9 -8 0 -17 8 -20 18 -3 9
-19 26 -36 37 -16 11 -30 25 -30 31 0 6 -11 17 -25 24 -13 7 -27 20 -30 29 -3
9 -21 27 -40 41 -19 14 -37 33 -41 43 -3 9 -10 15 -15 12 -5 -4 -9 2 -9 11 0
10 -2 15 -6 12 -7 -7 -61 45 -56 55 2 4 -1 7 -6 7 -11 0 -92 79 -92 89 0 4
-11 14 -25 21 -13 7 -27 22 -31 32 -3 10 -10 16 -15 13 -5 -4 -9 2 -9 11 0 10
-2 15 -5 12 -7 -6 -75 60 -75 72 0 5 -9 12 -20 15 -11 4 -18 11 -15 16 11 17
-2 9 -36 -22z m611 -713 c0 -2 -8 -10 -17 -17 -16 -13 -17 -12 -4 4 13 16 21
21 21 13z"/>
</g>
</svg>
